<svg xmlns="http://www.w3.org/2000/svg" viewBox="0 0 220 150" role="img" aria-label="FSC logo style">
  <rect width="220" height="150" rx="18" fill="#f4f5f3"/>
  <g transform="translate(64 18)" fill="none" stroke="#272727" stroke-width="5" stroke-linecap="round" stroke-linejoin="round">
    <path d="M37 8c-15 4-24 17-22 31 2 13 13 21 27 21 17 0 29-12 29-28C71 16 56 4 43 7"/>
    <path d="M42 14c-2 18-6 32-17 46"/>
    <path d="M42 28c10-4 18-2 27 5"/>
    <path d="M36 41c-9-3-17-2-25 4"/>
    <path d="M72 20c9-2 17 3 18 11 1 9-7 15-15 12"/>
    <path d="M45 60v17"/>
  </g>
  <text x="110" y="108" text-anchor="middle" font-family="Arial, Helvetica, sans-serif" font-size="34" font-weight="900" fill="#007a3d">FSC</text>
  <text x="110" y="130" text-anchor="middle" font-family="Arial, Helvetica, sans-serif" font-size="13" font-weight="800" fill="#007a3d">PAPER SOURCE CHECK</text>
</svg>
